/* XPM */
static char * v4lmodule_xpm[] = {
"40 40 183 2",
"  	c None",
". 	c #0099FF",
"+ 	c #0066FF",
"@ 	c #000081",
"# 	c #000080",
"$ 	c #FFFF33",
"% 	c #CC6600",
"& 	c #FFCC33",
"* 	c #2D2D63",
"= 	c #000169",
"- 	c #000164",
"; 	c #000072",
"> 	c #333366",
", 	c #818181",
"' 	c #000099",
") 	c #C0C0C0",
"! 	c #000079",
"~ 	c #000255",
"{ 	c #01034B",
"] 	c #00024C",
"^ 	c #000256",
"/ 	c #000078",
"( 	c #0090F4",
"_ 	c #000070",
": 	c #000250",
"< 	c #00034C",
"[ 	c #12144A",
"} 	c #793E1E",
"| 	c #CCCC33",
"1 	c #0083E5",
"2 	c #00025D",
"3 	c #00044E",
"4 	c #00015F",
"5 	c #000000",
"6 	c #CC0000",
"7 	c #202248",
"8 	c #000243",
"9 	c #545541",
"0 	c #232548",
"a 	c #000258",
"b 	c #000073",
"c 	c #9A9B3C",
"d 	c #000253",
"e 	c #00024D",
"f 	c #000166",
"g 	c #F0F034",
"h 	c #00016C",
"i 	c #00024B",
"j 	c #D5D5E1",
"k 	c #FFFFFF",
"l 	c #0C0847",
"m 	c #B4B43A",
"n 	c #7F803F",
"o 	c #572D2B",
"p 	c #B4903A",
"q 	c #000239",
"r 	c #0066CC",
"s 	c #03044A",
"t 	c #582D2B",
"u 	c #616387",
"v 	c #001967",
"w 	c #080649",
"x 	c #000016",
"y 	c #CC3300",
"z 	c #C4C438",
"A 	c #6E3822",
"B 	c #884519",
"C 	c #B4B4B9",
"D 	c #990000",
"E 	c #27275F",
"F 	c #00006E",
"G 	c #C00004",
"H 	c #2D2F47",
"I 	c #01034C",
"J 	c #000248",
"K 	c #5C5D72",
"L 	c #00007D",
"M 	c #00006F",
"N 	c #8A8B3E",
"O 	c #000074",
"P 	c #E6E635",
"Q 	c #A7540D",
"R 	c #000009",
"S 	c #454668",
"T 	c #BFBF39",
"U 	c #0C0E4A",
"V 	c #DADA36",
"W 	c #1E2049",
"X 	c #191B49",
"Y 	c #B35909",
"Z 	c #00024A",
"` 	c #633327",
" .	c #00011B",
"..	c #535543",
"+.	c #A7000D",
"@.	c #02024B",
"#.	c #686941",
"$.	c #00044D",
"%.	c #474945",
"&.	c #0A0C4B",
"*.	c #04064E",
"=.	c #330238",
"-.	c #C96400",
";.	c #000125",
">.	c #100A46",
",.	c #000254",
"'.	c #1D1E5A",
").	c #3C3E46",
"!.	c #000249",
"~.	c #F0F0F4",
"{.	c #1E205E",
"].	c #100246",
"^.	c #C0C034",
"/.	c #06084B",
"(.	c #2F3147",
"_.	c #00007C",
":.	c #08094B",
"<.	c #00023C",
"[.	c #22245A",
"}.	c #373945",
"|.	c #02044B",
"1.	c #D8D836",
"2.	c #7C3F1D",
"3.	c #6B3724",
"4.	c #00000D",
"5.	c #C1C139",
"6.	c #080A4B",
"7.	c #0B0D4A",
"8.	c #C06004",
"9.	c #01024B",
"0.	c #93943D",
"a.	c #343646",
"b.	c #75769E",
"c.	c #5F0128",
"d.	c #00156D",
"e.	c #00034B",
"f.	c #23023E",
"g.	c #000004",
"h.	c #B50008",
"i.	c #76011F",
"j.	c #7D7EA3",
"k.	c #9A4D12",
"l.	c #8A4618",
"m.	c #A8540D",
"n.	c #D5D537",
"o.	c #552C2C",
"p.	c #670125",
"q.	c #600128",
"r.	c #797A40",
"s.	c #5C3029",
"t.	c #7A7BA1",
"u.	c #000127",
"v.	c #74759D",
"w.	c #610127",
"x.	c #600127",
"y.	c #390236",
"z.	c #1C0241",
"A.	c #140244",
"B.	c #130C44",
"C.	c #1B0241",
"D.	c #3F0234",
"E.	c #6E0015",
"F.	c #000244",
"G.	c #05084E",
"H.	c #2F0234",
"I.	c #743B20",
"J.	c #03054B",
"K.	c #7B3E1E",
"L.	c #904816",
"M.	c #04044A",
"N.	c #F0C034",
"O.	c #870119",
"P.	c #680124",
"Q.	c #15175A",
"R.	c #03024A",
"S.	c #03054D",
"T.	c #02024A",
"U.	c #04024A",
"V.	c #000247",
"W.	c #130244",
"X.	c #0E0244",
"Y.	c #140241",
"Z.	c #000015",
". . . . + . @ . @ # $ . @ @ @ @ @ $ @ @ @ $ $ @ # @ $ @ $ % @ $ $ $ $ $ % % & % ",
". . @ @ . . . . . . . # @ @ @ @ * = - ; > @ , % $ $ % $ % $ $ $ $ $ $ $ % & % % ",
". @ . . . . . . . . + ' @ @ ) ! ~ { ] ^ / ( # > & $ $ @ $ $ $ $ $ $ % $ & % % % ",
". . . . . @ . . . + @ @ + @ _ : < < < ] [ } > | $ $ @ $ % $ $ $ $ $ $ , % $ % % ",
". @ . , > @ @ . @ . $ @ 1 2 3 < < < ] < < 4 5 $ 5 $ # % $ $ $ % $ $ 6 % % % % % ",
". @ @ . . @ @ , ' . @ / 7 < < < < 8 ] < < 9 % > @ $ $ $ & & $ $ $ & % % $ % % % ",
"@ . @ @ @ # + | # @ ! 0 < < < ] a b ] < < c . & $ % $ $ % % $ % & % @ $ % % % 6 ",
". . . . . . . @ @ . d < < < e f g h i < { j % $ $ @ k & % # $ & $ % $ % % % % % ",
". . . $ + ' @ $ . @ ] < < < < < < < < < < < < < < < < l m % & % % $ % , $ & % % ",
"@ . . + @ @ 5 @ @ @ ] < < < < < < < < < < < < < < < < < n $ > @ % % $ 5 % % % | ",
"$ $ @ > $ $ @ @ . @ o : e ] < < < < < < < < < < < < < l p % $ @ % % % % % % % % ",
". + ' $ @ $ . @ @ @ > 5 $ 5 | $ $ e < < q % @ k # 6 % % % % % @ % % % % % % 6 6 ",
"r ' $ @ @ ' @ @ @ . $ % # > | + % s < < t $ @ 5 @ $ % % % % $ % % 6 % % % $ % % ",
". 5 @ . @ @ $ $ ) @ @ r . @ % @ 5 ] < < u @ % 5 $ > @ % ) % 6 % ) % $ % 6 6 % % ",
"@ . @ | @ $ @ $ @ @ # $ $ > @ % % v ] w x 5 % $ % 6 % & $ $ % % % % % % % % % y ",
"@ @ $ @ . . @ @ @ @ $ @ $ $ $ ) % z A B C $ 5 % 6 $ % $ $ % % % % % 6 % 6 $ D 6 ",
"@ @ @ + . @ @ . & # $ $ @ $ $ @ @ 6 E A F G @ , 6 $ 6 6 6 % % % % 6 6 6 % 6 6 % ",
"@ @ @ @ % $ @ % @ & $ $ % $ @ | 5 % H I J K 6 % % 5 % % % % $ % % $ 6 % 6 6 % 6 ",
"$ L M N O . @ & $ $ $ $ P Q R 5 , % e < ] S 5 % 5 $ % 6 & 6 % % % 6 % % % ) & 6 ",
"@ T U ] d ( > $ % $ @ V W < X Y 5 % Z < < ` % & 5 % k $ & $ % % % 6 6 D 6 6 6 D ",
"$ M < < ]  .@ > $ $ $ ..< < < +.$ | @.< < #.% 6 5 % % 6 6 % % 5 % 6 6 6 % D 6 & ",
"$ / $.< < %.$ @ @ % L &.< < U P , > *.< < =.) 6 6 k k 6 % , $ $ 5 6 D 6 % % 6 % ",
"@ $ d < < J -.& % k h < < < ;.% $ , >.< < ,.6 k % k % 6 % % % 6 D 6 6 6 6 6 % 6 ",
"% . '.< < < T k $ $ ).< < !.~.| k ) {.< < ].k 6 5 % $ 6 , 6 6 % k 6 % % 6 % 6 6 ",
"# > ^./.< < (.5 5 _.:.< < <.$ $ k | [.< < Z 5 $ % $ 6 $ 6 6 5 6 6 6 6 D 6 % % 6 ",
"$ k @ }.< < |.1.% - < < < 2.> $ k $ 3.< < i 4.k $ $ 6 6 $ 6 6 % 6 % % 5 6 ) 6 6 ",
"| $ $ O I < < n 5.6.< < 7.8.$ % $ $ 4.9.< < 0.k 5 6 % 5 6 6 D 6 ) % 6 6 D % % 6 ",
"$ @ @ $ &.< < a.(.< < i b.5 5 5 k 6 5 |.< < c.5 % % D $ % 6 % 6 6 6 % 6 6 6 6 6 ",
"$ > % @ d.< < /.e.< < f.g.5 5 6 5 % h.i < < i.6 k 6 % 6 5 % 6 6 6 % 6 6 D % 6 D ",
"$ $ $ $ j.< < < < < s k.$ % % $ 6 $ l.< < i m.% & 6 $ 6 % 5 k % 6 6 6 6 6 6 6 % ",
"$ $ % $ n.< < < < < o.$ % % 5 $ 6 % p.< < { q.r.s.t.u.v.w.x.t y.z.A.B.C.D.E.6 6 ",
"@ $ $ $ $ F.< < < G.g @ $ | 5 % k % ;.< < < < < < < < < < < < < < < < < i H.6 6 ",
"$ $ $ $ $ I.J.< s K.% % > % $ % $ 6 L.M.< < < < < < < < < < < < < < < < i H.% k ",
"@ $ & $ % N.} o.O.% % & % 6 % $ 5 6 8.P.Q.@.R.S.|.s R.@.T.R.@.U.V.W.X.Y.H.Z.D D ",
"@ # $ $ & % 6 k % % % % $ % % 5 D % % 5 6 6 6 6 6 % % 6 6 6 D 6 % D D D 6 6 D 5 ",
"% $ $ & % % $ $ % % $ % % % 6 % % D 6 6 5 6 D k 6 6 D % 6 6 6 6 D D D D D D D D ",
"$ & & $ % & % 5 % % % % % % % % 6 5 6 % % 6 6 6 D 5 % 5 6 6 6 % 6 D D 6 D 6 D D ",
"$ % % % @ $ $ $ % % % % % $ % % 6 % 6 6 6 6 6 6 6 6 6 % % % 6 D D D D 6 D 6 D D ",
"& % % % % % % % $ $ % $ $ % % % $ 6 6 D 6 6 6 6 % 6 6 % 6 6 6 6 D 6 D D D D 6 D ",
"$ % % % % % % % % 6 6 % % % 6 6 6 6 6 D 6 D k 6 6 6 6 D 6 D D 6 D D D D D 6 D D "};
