/* XPM */
static char *gdimonitor_xpm[] = {
/* width height num_colors chars_per_pixel */
"    40    40      256            2",
/* colors */
"`` c #040204",
"`. c #84827c",
"`# c #bcc2bc",
"`a c #cc0204",
"`b c #343a34",
"`c c #dce2dc",
"`d c #9ca29c",
"`e c #1c1e1c",
"`f c #545654",
"`g c #ecf2ec",
"`h c #acb2ac",
"`i c #ccd2cc",
"`j c #141214",
"`k c #a49e9c",
"`l c #444a44",
"`m c #8c928c",
"`n c #2c2e24",
"`o c #040a04",
"`p c #5c625c",
"`q c #aca6a4",
"`r c #443e44",
"`s c #eceae4",
"`t c #f4fafc",
"`u c #dcd2d4",
"`v c #c4cac4",
"`w c #242624",
"`x c #bcbab4",
"`y c #949a94",
"`z c #6c6a64",
"`A c #645e5c",
"`B c #848a8c",
"`C c #1c1a1c",
"`D c #544e54",
"`E c #140e14",
"`F c #747674",
"`G c #e4eae4",
"`H c #a4aa9c",
"`I c #5c5e5c",
"`J c #fcf2ec",
"`K c #343634",
"`L c #0c060c",
"`M c #ccc6c4",
"`N c #3c3a34",
"`O c #f4f2ec",
"`P c #b4bab4",
"`Q c #d4dad4",
"`R c #1c161c",
"`S c #9c9694",
"`T c #0c0a04",
"`U c #acaea4",
"`V c #444644",
"`W c #dcdad4",
"`X c #2c262c",
"`Y c #c4c2bc",
"`Z c #e4e2dc",
"`0 c #a4a29c",
"`1 c #241e24",
"`2 c #5c565c",
"`3 c #b4b2ac",
"`4 c #d4d2cc",
"`5 c #4c4a44",
"`6 c #94928c",
"`7 c #2c2e34",
"`8 c #646a64",
".` c #f4eeec",
".. c #fcfaf4",
".# c #cccac4",
".a c #bcbeb4",
".b c #9c9a94",
".c c #74726c",
".d c #3c3a44",
".e c #0c0a14",
".f c #e4dedc",
".g c #040604",
".h c #8c8684",
".i c #141614",
".j c #64625c",
".k c #eceee4",
".l c #8c8a84",
".m c #f4f6ec",
".n c #dcded4",
".o c #c4c6bc",
".p c #e4e6dc",
".q c #a4a69c",
".r c #b4b6ac",
".s c #d4d6cc",
".t c #4c4a54",
".u c #94968c",
".v c #fcfef4",
".w c #cccec4",
".x c #9c9e94",
".y c #84867c",
".z c #acaaa4",
".A c #44423c",
".B c #242a2c",
".C c #c4b6b4",
".D c #6c6e6c",
".E c #54524c",
".F c #7c7e7c",
".G c #3c3e34",
".H c #0c0e0c",
".I c #b4aeac",
".J c #4c464c",
".K c #2c2a2c",
".L c #242224",
".M c #5c5a54",
".N c #4c4e4c",
".O c #343234",
".P c #646664",
".Q c #8c8e8c",
".R c #04020c",
".S c #1c1e24",
".T c #54565c",
".U c #ecf2f4",
".V c #14121c",
".W c #b49e9c",
".X c #2c2e2c",
".Y c #eceaec",
".Z c #24262c",
".0 c #bcbabc",
".1 c #6c6a6c",
".2 c #645e64",
".3 c #1c1a24",
".4 c #140e1c",
".5 c #7c7a74",
".6 c #e4eaec",
".7 c #a4aaa4",
".8 c #5c5e64",
"#` c #34363c",
"#. c #3c3e44",
"## c #0c0e14",
"#a c #0c0614",
"#b c #3c3a3c",
"#c c #f4f2f4",
"#d c #1c1624",
"#e c #0c0a0c",
"#f c #acaeac",
"#g c #44464c",
"#h c #dcdadc",
"#i c #c4c2c4",
"#j c #e4e2e4",
"#k c #a4a2a4",
"#l c #b4b2b4",
"#m c #d4d2d4",
"#n c #4c4a4c",
"#o c #949294",
"#p c #fcfafc",
"#q c #cccacc",
"#r c #bcbebc",
"#s c #9c9a9c",
"#t c #747274",
"#u c #04060c",
"#v c #14161c",
"#w c #646264",
"#x c #eceeec",
"#y c #8c8a8c",
"#z c #f4f6f4",
"#A c #dcdedc",
"#B c #c4c6c4",
"#C c #e4e6e4",
"#D c #a4a6a4",
"#E c #b4b6b4",
"#F c #d4d6d4",
"#G c #949694",
"#H c #fcfefc",
"#I c #cccecc",
"#J c #9c9e9c",
"#K c #848684",
"#L c #acaaac",
"#M c #444244",
"#N c #545254",
"#O c #2c2a34",
"#P c #24222c",
"#Q c #5c5a5c",
"#R c #34323c",
"#S c #000000",
"#T c #000000",
"#U c #000000",
"#V c #000000",
"#W c #000000",
"#X c #000000",
"#Y c #000000",
"#Z c #000000",
"#0 c #000000",
"#1 c #000000",
"#2 c #000000",
"#3 c #000000",
"#4 c #000000",
"#5 c #000000",
"#6 c #000000",
"#7 c #000000",
"#8 c #000000",
"a` c #000000",
"a. c #000000",
"a# c #000000",
"aa c #000000",
"ab c #000000",
"ac c #000000",
"ad c #000000",
"ae c #000000",
"af c #000000",
"ag c #000000",
"ah c #000000",
"ai c #000000",
"aj c #000000",
"ak c #000000",
"al c #000000",
"am c #000000",
"an c #000000",
"ao c #000000",
"ap c #000000",
"aq c #000000",
"ar c #000000",
"as c #000000",
"at c #000000",
"au c #000000",
"av c #000000",
"aw c #000000",
"ax c #000000",
"ay c #000000",
"az c #000000",
"aA c #000000",
"aB c #000000",
"aC c #000000",
"aD c #000000",
"aE c #000000",
"aF c #000000",
"aG c #000000",
"aH c #000000",
"aI c #000000",
"aJ c #000000",
"aK c #000000",
"aL c #000000",
"aM c #000000",
"aN c #000000",
"aO c #000000",
"aP c #000000",
"aQ c #000000",
"aR c #000000",
"aS c #000000",
"aT c #000000",
"aU c #000000",
"aV c #000000",
"aW c #000000",
"aX c #000000",
"aY c #000000",
"aZ c #000000",
"a0 c #000000",
"a1 c #000000",
"a2 c #000000",
"a3 c #000000",
"a4 c #000000",
"a5 c #000000",
"a6 c #000000",
"a7 c #000000",
"a8 c #000000",
/* pixels */
"#H#H#H#H..#p.v#z`O#x.k#x`s#C`s`s`s`G`s#C#C`s#C`s`G`s`s#x.k#x`O.m#z....#H#p`J..#H",
"#H#H#H#p.##I#I`x`x`P`x`P.a#r#r`Y`##i#B.#`v.#.##I`4`i#F.n#A`Z#C`G#x#z.v#H.``k`u#p",
"#H#H#H#H#B.w#I.a`x`x`x.0`x`x#r`#`Y.o#B.o`M`v`v.w`i`4`W`Q#h`c.p`s`O#z..#p.`.C.f#H",
"#H#H#H#H.w#I`4#E`P`x`P`Y#i#B.o#i#B`Y#i#r`x`x#E#l`3#l#f#L#D#k#J#s#G#o.Q#K#o..`O#H",
"#H#H#H#H#q`4.w#E#E`x`d.X.S`e`C.i.i`j.H#e.H#e`T`o#u#e#u#u`L``#u````.R#u#u`V#z#z#H",
"#H#H#H#H.w#I`4#E#E`P#k`L#u`L#u#u`L#e####.e#e.e#u`L#u`L#u#u`L#u#u.R.g`L.g`K.U#x#p",
"#H#H#H#H`4#I.w`x#E`x#D.e#u#u#a.e###v#d.3#v#v.V##.e#e#e#u`L#u`L#u`L#u.R#u.K.6.6`t",
"#H#H#H#H`4#I.##r.r.r#L#e#u`L.e#v.3`X`7.O`7#O.L#d.V#####e#e#u`L#u``#u`L.g.L#C`s#z",
"..`s#A`W#B.#.#`##E.r#l###u#e`j.L#`#..J`l.J#M.d.X#P`e`R#v`j.e#e#u`L.g#u#u`R`W`c#c",
"#F#r.a#r`Y`v.##r`3`3#l`j`L##.3.O#g#N.T#Q#Q#N.t#M.O#O#P.S.3.i###e.R#u`L``.H#m#A#x",
".s#r#r`Y`#`M`v#r`3`h`3#v#e`j#P#.`D#Q.8#w#w.8.T#n.d`7`X`w.L.3`j.e`L.g.R`L#e`v#h.Y",
"#F.a`Y#r`Y`v.##r`h#f#f`e#e##`w#M#N.8#w.P#w#w#Q.N#..O`7`X.Z.S`R###e#u#u.g`o`Y#A#C",
"`W#r#r`#`Y#B.##r`3`U#f.X`T`j.Z`a`a`a`a`a.P#w`I`a`a`a`a`a`a`1#v`E#u`a`a`L`o#r`W#C",
"`W#r.a`Y`Y.o.#`Y#f`U#L`K`L.H`a`a#N#Q#w`a`a`I#Q`a`a.O`7.K`a`a`C`j#u`a`a```T`x#m#C",
"#A.a#r`Y`##B`v.o.z#f.z`K`o`a`a.O#n`2`I.8`a#Q`f`a`a.O.O`X.Z`a`a##`L`a`a.g`T#f`i.f",
"#A.a#r`Y`Y.o#q#B.z.z.7`N`T`a`a`X.d#n.T#Q`2.T.J`a`a.O#O.K.Z`a`a`E#u`a`a`L.g#D`4`Q",
".p`x#r`#`Y#i`v.#.7.7.z`V.g`a`a`C#O#.#g#n#n#g#.`a`a.K#O`X`w`a`a#e`L`a`a``.g.z.w`W",
"`s`x#r`Y`#.o`v.##D.z#D.N.g`a`a##`C`a`a`a`a#`.O`a`a`X.Z.L.S`a`a#e#u`a`a.g.g`0.w#F",
"#x.0.a`#`Y`Y.##q`q`q`q.E.g`a`a`L##`R`e`a`a`X.Z`a`a`1.S`C#v`a`a#u`L`a`a.g.g`0#I#F",
"#x`P.a`Y`#`Y`v.#`q.z#D.N.g`a`a#u`L#e`E`a`a#v`R`a`a`j`j`j##`a`a`L```a`a`L``.x#I.s",
"#z`x#r`Y`Y`Y#q.#.z`q#k#N.g.g`a`a#u#e#e`a`a##`E`a`a##.e#e`a`a`L.g#u`a`a.g.g.x#I#F",
"#p.0.a`#`Y`#.#.#`q#D`0`f`L.g`L`a`a`a`a#u`a`L.g`a`a`a`a`a`a.g.R#u`L`a`a.g.g`0.##F",
"#p#c`#`Y`#`Y`v`M.z`q#k`f.g.g``#u``#u``#u.g#u#u``#u`L``#u`L.R`L``#u``#u`L.g.q#q.s",
"#H#H#q#E`Y`#.#`M`q#k`0`A.g`L#u`L#u`L#u`L.R`L.g`L.R.g`L``#u.g#u#u`L#u.g`L.g`U.#`Q",
"#H#H#m`x`P#i.#`M#f`q`0.8`L.g.g.R.g.R.g#u.g.R#u#u`L#u#u#u`L#u`L#u`L#u`L#u`o#E#I`W",
"#H#H#m.0.a#B`v.#.I`0#k#w.g.g#u`L#u`L`L.R`L#u`L.R.g.R`L.g.R.g`L#u.g`L#u`R`p.##B`c",
"#H#H#F#r#r`Y.#.##f#D`0.P.g`L#u`L#u#a#u#a#u`L#u`L#u`L#u#e`R.K.d`D.P.5#G.z.Q`x.o.f",
"#H#H#j.0#r.o`v.#`h.q#k#t`o`L.g`L#u.R#u`L##`j.K.G#Q`F.Q#D#E#E#E.0#r#r#r.a#E.w#i`Q",
"#H#H#p#I.a`M`v.##f#D.q#y`w`w#M.N`I`z.F.l.b#D#f`h`U#f`x#f`3.r`x`#.o.q.z`H#E.a#B`Z",
"#H#H#H#p#A.o.#`v`3#D#D`0`..1`A`6`q`q#L.z#k.z`U`3`3`0`0.x`0#E#E`3.r`Y`Y`v`M#r#i#z",
"#H#H#H#H..#F.##q.r#D`q`k#t.5.h`q.I`3`q#s`0`0.x.u.u#D`h.r`x`x.a#r#r`##r`x#B#C#p#H",
"#H#H#H#H#H#F.w#I`x`h`U`0`S`S`k.b`6#o.b`q.I#f`U`U.r#E#E`x#E`P`x#r#f.z.w#z#H#H#H#H",
"#H#H#H#H#H`W.w.#.z#G#G.b`q.I`U.z.z.z#L.z`U.I#f`3`x.r#E.r.z.0#B`4`s..#H#p#H#H#H#H",
"#H#H#H#H..#C#B.#`h`0.q`q.7.z`U#L.z#f`U.z.z#D#k#G.F#Q.A.G.N`..w`t..#H#H#H#H#H#H#H",
"#H#H#H#H`W`Y`Y`#.Q.y.5.1.D.F.D.8#Q.N#M`K.X`w`1.i.i`e`n`K`5`8.y.z#A#p#H#H#H#H#H#H",
"#H#H#H#H#x.#`v.r.z`.`5.X#v`j###e#e.e#e##`C`1.B`K`V.M#t`B.x#f#l#r#B#m#H#H#H#H#H#H",
"#H#H#H#H#H#c.##E.q.u`8`r.Z`C.i`j`e.L.K`K#M.M.D.h.x#L`P`Y`Y`Y#r#B`u#x#H#H#H#H#H#H",
"#H#H#H#H#H#H#z`W#E.z#G.F.P.M`I.P.c.F`m`k#f.r`x`P`x.a`M#m#A.Y#z#H#H#H#H#H#H#H#H#H",
"#H#H#H#H#H#H#H#p`g.#.r`U`3`3#E.r`3`3#E`P`Y#I.s#x..#p#H#p#H#H#H#H#H#H#H#H#H#H#H#H",
"#H#H#H#H#H#H#H#H#H..`G.#`P#i.w`Q#C`O..#H.v#p#H#p#H#H#H#H#H#H#H#H#H#H#H#H#H#H#H#H"
};
