/* XPM */
static char* imgaddmodule_xpm[] = {
"40 44 2 1",
"  c None",
"! c #000000",
"                                        ",
"                                        ",
"                                        ",
"                                        ",
"                                        ",
"      !!!!!!!!!        !!          !!   ",
"     !!!!!!!!!        !!!         !!!   ",
"    !!!!!!!!!        !!!!        !!!!   ",
"   !!!!!!!!!!       !!!!!       !!!!!   ",
"   !!!!    !!        !!!!        !!!!   ",
"   !!!!    !!        !!!!        !!!!   ",
"   !!!!    !!        !!!!        !!!!   ",
"   !!!!    !!        !!!!        !!!!   ",
"   !!!!    !!        !!!!        !!!!   ",
"   !!!!    !!        !!!!        !!!!   ",
"   !!!!    !!        !!!!        !!!!   ",
"   !!!!    !!        !!!!        !!!!   ",
"   !!!!    !!        !!!!        !!!!   ",
"   !!!!    !!        !!!!        !!!!   ",
"   !!!!    !!        !!!!        !!!!   ",
"   !!!!    !!       !!!!!       !!!!!   ",
"   !!!!!!!!!!     !!!!!!!     !!!!!!!   ",
"   !!!!!!!!!!    !!!!!!!!    !!!!!!!!   ",
"   !!!!    !!   !!!! !!!!   !!!! !!!!   ",
"   !!!!    !!  !!!!  !!!!  !!!!  !!!!   ",
"   !!!!    !!  !!!!  !!!!  !!!!  !!!!   ",
"   !!!!    !!  !!!!  !!!!  !!!!  !!!!   ",
"   !!!!    !!  !!!!  !!!!  !!!!  !!!!   ",
"   !!!!    !!  !!!!  !!!!  !!!!  !!!!   ",
"   !!!!    !!  !!!!  !!!!  !!!!  !!!!   ",
"   !!!!    !!  !!!!  !!!!  !!!!  !!!!   ",
"   !!!!    !!  !!!!  !!!!  !!!!  !!!!   ",
"   !!!!    !!  !!!!  !!!!  !!!!  !!!!   ",
"   !!!!    !!  !!!!  !!!!! !!!!  !!!!!  ",
"   !!!!!   !!  !!!!!!!!!!  !!!!  !!!!   ",
"   !!!!!!   !! !!!!!!!!!   !!!!!!!!!    ",
"    !!!!     !!!!!!!!!!     !!!!!!!     ",
"     !!                                 ",
"                                        ",
"                                        ",
"                                        ",
"                                        ",
"                                        ",
"                                        "};