/* XPM */
static char * addmodule_icon_xpm[] = {
"32 32 2 1",
" 	c None",
".	c #000000",
"              .                 ",
"             ...                ",
"            .....               ",
"            .....               ",
"            .....               ",
"            .....               ",
"            .....               ",
"            .....               ",
"            .....               ",
"            .....               ",
"            .....               ",
"            .....               ",
"            .....               ",
" ..................             ",
"...........................     ",
"..............................  ",
" .............................  ",
"        ......................  ",
"           ........ ..........  ",
"           ......               ",
"            .....               ",
"            ....                ",
"           .....                ",
"           .....                ",
"           .....                ",
"           .....                ",
"           .....                ",
"           ....                 ",
"           ....                 ",
"           ....                 ",
"            ..                  ",
"                                "};
