/* XPM */
static char *x11outmodule_xpm[] = {
/* width height num_colors chars_per_pixel */
"    40    40      256            2",
/* colors */
"`` c #040204",
"`. c #84827c",
"`# c #bcc2bc",
"`a c #cc0204",
"`b c #343a34",
"`c c #dce2dc",
"`d c #9ca29c",
"`e c #1c1e1c",
"`f c #545654",
"`g c #ecf2ec",
"`h c #acb2ac",
"`i c #ccd2cc",
"`j c #141214",
"`k c #a49e9c",
"`l c #444a44",
"`m c #2c2e24",
"`n c #8c928c",
"`o c #040a04",
"`p c #5c625c",
"`q c #aca6a4",
"`r c #443e44",
"`s c #eceae4",
"`t c #f4fafc",
"`u c #dcd2d4",
"`v c #c4cac4",
"`w c #242624",
"`x c #bcbab4",
"`y c #949a94",
"`z c #6c6a64",
"`A c #645e5c",
"`B c #3c363c",
"`C c #848a8c",
"`D c #1c1a1c",
"`E c #544e54",
"`F c #343634",
"`G c #140e14",
"`H c #747674",
"`I c #e4eae4",
"`J c #a4aa9c",
"`K c #5c5e5c",
"`L c #fcf2ec",
"`M c #0c060c",
"`N c #ccc6c4",
"`O c #3c3a34",
"`P c #f4f2ec",
"`Q c #b4bab4",
"`R c #d4dad4",
"`S c #1c161c",
"`T c #2c2e34",
"`U c #9c9694",
"`V c #0c0a04",
"`W c #acaea4",
"`X c #444644",
"`Y c #dcdad4",
"`Z c #2c262c",
"`0 c #c4c2bc",
"`1 c #e4e2dc",
"`2 c #a4a29c",
"`3 c #241e24",
"`4 c #5c565c",
"`5 c #b4b2ac",
"`6 c #d4d2cc",
"`7 c #4c4a44",
"`8 c #94928c",
".` c #646a64",
".. c #f4eeec",
".# c #fcfaf4",
".a c #cccac4",
".b c #bcbeb4",
".c c #9c9a94",
".d c #74726c",
".e c #3c3a44",
".f c #0c0a14",
".g c #e4dedc",
".h c #040604",
".i c #8c8684",
".j c #141614",
".k c #64625c",
".l c #eceee4",
".m c #8c8a84",
".n c #f4f6ec",
".o c #342e34",
".p c #dcded4",
".q c #c4c6bc",
".r c #e4e6dc",
".s c #a4a69c",
".t c #b4b6ac",
".u c #d4d6cc",
".v c #4c4a54",
".w c #94968c",
".x c #fcfef4",
".y c #cccec4",
".z c #9c9e94",
".A c #84867c",
".B c #acaaa4",
".C c #44423c",
".D c #242a2c",
".E c #c4b6b4",
".F c #6c6e6c",
".G c #54524c",
".H c #7c7e7c",
".I c #3c3e34",
".J c #0c0e0c",
".K c #b4aeac",
".L c #4c464c",
".M c #2c2a2c",
".N c #242224",
".O c #5c5a54",
".P c #4c4e4c",
".Q c #646664",
".R c #8c8e8c",
".S c #343234",
".T c #04020c",
".U c #1c1e24",
".V c #54565c",
".W c #ecf2f4",
".X c #14121c",
".Y c #b49e9c",
".Z c #2c2e2c",
".0 c #eceaec",
".1 c #24262c",
".2 c #bcbabc",
".3 c #6c6a6c",
".4 c #645e64",
".5 c #1c1a24",
".6 c #34363c",
".7 c #140e1c",
".8 c #7c7a74",
"#` c #e4eaec",
"#. c #3c3e44",
"## c #0c0e14",
"#a c #a4aaa4",
"#b c #5c5e64",
"#c c #0c0614",
"#d c #3c3a3c",
"#e c #f4f2f4",
"#f c #1c1624",
"#g c #0c0a0c",
"#h c #acaeac",
"#i c #44464c",
"#j c #dcdadc",
"#k c #c4c2c4",
"#l c #e4e2e4",
"#m c #a4a2a4",
"#n c #b4b2b4",
"#o c #d4d2d4",
"#p c #4c4a4c",
"#q c #949294",
"#r c #fcfafc",
"#s c #cccacc",
"#t c #bcbebc",
"#u c #9c9a9c",
"#v c #747274",
"#w c #04060c",
"#x c #14161c",
"#y c #646264",
"#z c #eceeec",
"#A c #8c8a8c",
"#B c #f4f6f4",
"#C c #dcdedc",
"#D c #c4c6c4",
"#E c #e4e6e4",
"#F c #a4a6a4",
"#G c #b4b6b4",
"#H c #d4d6d4",
"#I c #949694",
"#J c #fcfefc",
"#K c #cccecc",
"#L c #9c9e9c",
"#M c #848684",
"#N c #acaaac",
"#O c #444244",
"#P c #545254",
"#Q c #2c2a34",
"#R c #24222c",
"#S c #5c5a5c",
"#T c #34323c",
"#U c #000000",
"#V c #000000",
"#W c #000000",
"#X c #000000",
"#Y c #000000",
"#Z c #000000",
"#0 c #000000",
"#1 c #000000",
"#2 c #000000",
"#3 c #000000",
"#4 c #000000",
"#5 c #000000",
"#6 c #000000",
"#7 c #000000",
"#8 c #000000",
"a` c #000000",
"a. c #000000",
"a# c #000000",
"aa c #000000",
"ab c #000000",
"ac c #000000",
"ad c #000000",
"ae c #000000",
"af c #000000",
"ag c #000000",
"ah c #000000",
"ai c #000000",
"aj c #000000",
"ak c #000000",
"al c #000000",
"am c #000000",
"an c #000000",
"ao c #000000",
"ap c #000000",
"aq c #000000",
"ar c #000000",
"as c #000000",
"at c #000000",
"au c #000000",
"av c #000000",
"aw c #000000",
"ax c #000000",
"ay c #000000",
"az c #000000",
"aA c #000000",
"aB c #000000",
"aC c #000000",
"aD c #000000",
"aE c #000000",
"aF c #000000",
"aG c #000000",
"aH c #000000",
"aI c #000000",
"aJ c #000000",
"aK c #000000",
"aL c #000000",
"aM c #000000",
"aN c #000000",
"aO c #000000",
"aP c #000000",
"aQ c #000000",
"aR c #000000",
"aS c #000000",
"aT c #000000",
"aU c #000000",
"aV c #000000",
"aW c #000000",
"aX c #000000",
"aY c #000000",
"aZ c #000000",
"a0 c #000000",
"a1 c #000000",
"a2 c #000000",
"a3 c #000000",
"a4 c #000000",
"a5 c #000000",
"a6 c #000000",
"a7 c #000000",
"a8 c #000000",
/* pixels */
"#J#J#J#J.##r.x#B`P#z.l#z`s#E`s`s`s`I`s#E#E`s#E`s`I`s`s#z.l#z`P.n#B.#.##J#r`L.##J",
"#J#J#J#r.a#K#K`x`x`Q`x`Q.b#t#t`0`##k#D.a`v.a.a#K`6`i#H.p#C`1#E`I#z#B.x#J..`k`u#r",
"#J#J#J#J#D.y#K.b`x`x`x.2`x`x#t`#`0.q#D.q`N`v`v.y`i`6`Y`R#j`c.r`s`P#B.##r...E.g#J",
"#J#J#J#J.y#K`6#G`Q`x`Q`0#k#D.q#k#D`0#k#t`x`x#G#n`5#n#h#N#F#m#L#u#I#q.R#M#q.#`P#J",
"#J#J#J#J#s`6.y#G#G`x`d.Z.U`e`D.j.j`j.J#g.J#g`V`o#w#g#w#w`M``#w````.T#w#w`X#B#B#J",
"#J#J#J#J.y#K`6#G#G`Q#m`M#w`M#w#w`M#g####.f#g.f#w`M#w`M#w#w`M#w#w.T.h`M.h`F.W#z#r",
"#J#J#J#J`6#K.y`x#G`x#F.f#w#w#c.f###x#f.5#x#x.X##.f#g#g#w`M#w`M#w`M#w.T#w.M#`#``t",
"#J#J#J#J`6#K.a#t.t.t#N#g#w`M.f#x.5`Z`T.S`T#Q.N#f.X#####g#g#w`M#w``#w`M.h.N#E`s#B",
".#`s#C`Y#D.a.a`##G.t#n###w#g`j.N.6#..L`l.L#O.e.Z#R`e`S#x`j.f#g#w`M.h#w#w`S`Y`c#e",
"#H#t.b#t`0`v.a#t`5`5#n`j`M##.5.S#i#P.V#S#S#P.v#O.S#Q#R.U.5.j###g.T#w`M``.J#o#C#z",
".u#t#t`0`#`N`v#t`5`h`5#x#g`j#R#.`E#S#b#y#y#b.V#p.e`T`Z`w.N.5`j.f`M.h.T`M#g`v#j.0",
"#H.b`0#t`0`v.a#t`h#h#h`e#g##`w#O#P#b#y.Q#y#y#S.P#..S`T`Z.1.U`S###g#w#w.h`o`0#C#E",
"`Y#t#t`#`0#D.a#t`5`W#h.Z`V`j.1`r.V#b#y.Q`a`a`a`a`a.S.o#Q`a`a`S##`M#w`M.h`V#t`Y#E",
"`Y#t.b`0`0.q.a`0#h`W#N`F`M.J.N#.#P#b#y`a`a`K#S.P`a`a`T.M`a`a`D###g#w#w.T`V`Q#o#E",
"#C.b#t`0`##D`v.q.B#h.B`F`o`G`D.6#p.V`a`a`K#S#P.L#d`a.o.M`a`a`D##`M`M#w`M`o`W`6#C",
"#C.b#t`0`0.q#s#D.B.B#a`O`o.J.j.1#d.v`a`a`4.V#p#..6.o`T.M`a`a`S###w#g.h#w`M.s`i`Y",
".r`x#t`#`0#k`v.a#a#a.B`X`M`o#g.5.M#.`a`a#p#i#.`B`T`T.M.1`a`a#x#g`M#w#w``.h.B#K`Y",
"`s`x#t`0`#.q`v.a#F.B#F.P.h.h#g`G`D.M`a`a.6`B`a`a`a`a.1.N`a`a`G#g#w`M#w`M.h`2.y#H",
"#z.2.b`#`0`0.a#s`q`q`q.P.h`M.h`o##`S`a`a`w.1`Z.N`a`a`3`D`a`a#g#w#w#w#w.h.h`2#K#H",
"#z`Q.b`0`#`0`v.a`q.B#F.G.h.h`M`M#w.f`a`a.X`S`D`D`a`a`j`G`a`a#g#w`M.h`M#w``.z#K.u",
"#B`x#t`0`0`0#s.a.B`q#F`E.h.h#w#w`M#w#g`a`a######`a`a#g.f`a`a#w#w.T#w.T`M.h.z#K#H",
"#r.2.b`#`0`#.a.a`q#F`2`f.h`M.h#w`M#w`M#w`a`a`a`a`M`a#w#w`a`a`a`a`a`a`a.h.h`2.a#H",
"#r#e`#`0`#`0`v`N.B`q#m`f`M.h#w`M.h#w#w`M```M``#w.h.T`M.h.T`M```M```M```M.h.s.a#H",
"#J#J#s#G`0`#.a`N`q#m`2`A.h.h.h.T#w`M``#w#w.h#w`M#w.h#w`M.h#w#w.h#w#w#w`M.h#h.a`R",
"#J#J#o`x`Q#k.a`N#h`q`2#b`M.h`M#w``#w`M.h`M.T#w``#w`M.T#w.T`M#w`M`M`M#w.h`V#G.y`Y",
"#J#J#o.2.b#D`v.a.K`2#m.Q.h.h#w`M#w`M.T#w`M.T`M#w.T.h#w`M.h.T`M#w#w.h`M#x`p.a#D`c",
"#J#J#H#t#t`0.a.a#h.s`2.Q.h`M#w`M#w#c#w#c#w`M#w`M#w`M#w#g`S.D#d#P.Q.8#I#N.R`x#D.g",
"#J#J#l.2#t.q`v.a`h#F`2#v`V.h#w`M#w#w`M#w##`j.M.I#S`H`8#m#G`x#G.2#t#t`0`x`Q.y`0`R",
"#J#J#r#K.b`N`v.a#h#F#F#A`w`w#O.P`K`z.8#A.c#F#h`5`W#h.t`h`5#n`Q`0`0.s#a.B.t.2#D`1",
"#J#J#J#r#C.q.a`v`5.s#F`2`..3`A`8`q`q#N.B#m.B`W`5`h`2`2#L`2`Q.t`h.t`0`0#D#D#t#D#B",
"#J#J#J#J.##H.a#s#G#F`q`k#v.8.i`q.K`5`q#L`k`2.z.w.w#F`5.t`Q`x.2#t#t`0`#`x#D`s#r#J",
"#J#J#J#J#J#H.y#K`x`h`W`2`U`U`k.c`8#q.c`q.K#h`W`W.t#G#G`x`Q`x`x.b`5#F#K.n#J#J#J#J",
"#J#J#J#J#J`Y.y.a.B#I#I.c`q.K#h.B`q.B.B.B`W.K#h`5`x#G.t#G.B`x#D`6`I.x#r#J#J#J#J#J",
"#J#J#J#J.##E#D.a`h`2.s`q#a.B.B`W#N`W#h.B.B#F#m#I.H.O`X`O.P`.#K`t.##J#J#J#J#J#J#J",
"#J#J#J#J`Y`0`0`#.R.A.8.3.F.H.F#b#S.P#O`F.Z`w`3.j.j`e`m`F`7.`.A.B#C#r#J#J#J#J#J#J",
"#J#J#J#J#z.a`v.t.B`.`7.Z#x`G###g#g.f#g##`D`3.D`F`X.O.d`C.z#h`5#t#D#o#J#J#J#J#J#J",
"#J#J#J#J#J#e.a#G.s.w.``r`w`D.j`j`e.N.M`F#O.O.F.i.z#N`Q`0`0`0#t#D`u#z#J#J#J#J#J#J",
"#J#J#J#J#J#J#B`Y#G.B.w.H.Q.O`K.Q.d.H`n`k#h.t`x`Q`x#t`N#o#C.0#B#J#J#J#J#J#J#J#J#J",
"#J#J#J#J#J#J#J#r`g.a#G`W`5.t#G.t`5.t#n`Q`0#K#H#z.##r#J#r#J#J#J#J#J#J#J#J#J#J#J#J",
"#J#J#J#J#J#J#J#J#J.#`I.a`Q#k.y`R#l`P.##J#J#r#J#J#J#J#J#J#J#J#J#J#J#J#J#J#J#J#J#J"
};
